<mxfile host="app.diagrams.net" modified="2024-07-13T19:24:33.118Z" agent="Mozilla/5.0 (X11; Linux x86_64; rv:127.0) Gecko/20100101 Firefox/127.0" etag="urxIXfPXiHkI1C6QN-wD" version="24.6.5" type="device">
  <diagram name="Page-1" id="c4acf3e9-155e-7222-9cf6-157b1a14988f">
    <mxGraphModel dx="1394" dy="751" grid="1" gridSize="10" guides="1" tooltips="1" connect="1" arrows="1" fold="1" page="1" pageScale="1" pageWidth="850" pageHeight="1100" background="none" math="0" shadow="0">
      <root>
        <mxCell id="0" />
        <mxCell id="1" parent="0" />
        <mxCell id="bKtA1S6GqMZanXuYI8Mx-5" value="&lt;i&gt;LinkedListStrategy&lt;/i&gt;" style="swimlane;fontStyle=1;align=center;verticalAlign=top;childLayout=stackLayout;horizontal=1;startSize=26;horizontalStack=0;resizeParent=1;resizeParentMax=0;resizeLast=0;collapsible=1;marginBottom=0;whiteSpace=wrap;html=1;" vertex="1" parent="1">
          <mxGeometry x="300" y="230" width="160" height="86" as="geometry" />
        </mxCell>
        <mxCell id="bKtA1S6GqMZanXuYI8Mx-6" value="~ head: Node&amp;lt;T&amp;gt;" style="text;strokeColor=none;fillColor=none;align=left;verticalAlign=top;spacingLeft=4;spacingRight=4;overflow=hidden;rotatable=0;points=[[0,0.5],[1,0.5]];portConstraint=eastwest;whiteSpace=wrap;html=1;" vertex="1" parent="bKtA1S6GqMZanXuYI8Mx-5">
          <mxGeometry y="26" width="160" height="26" as="geometry" />
        </mxCell>
        <mxCell id="bKtA1S6GqMZanXuYI8Mx-7" value="" style="line;strokeWidth=1;fillColor=none;align=left;verticalAlign=middle;spacingTop=-1;spacingLeft=3;spacingRight=3;rotatable=0;labelPosition=right;points=[];portConstraint=eastwest;strokeColor=inherit;" vertex="1" parent="bKtA1S6GqMZanXuYI8Mx-5">
          <mxGeometry y="52" width="160" height="8" as="geometry" />
        </mxCell>
        <mxCell id="bKtA1S6GqMZanXuYI8Mx-8" value="+ &lt;i&gt;insert(T value): void&lt;/i&gt;" style="text;strokeColor=none;fillColor=none;align=left;verticalAlign=top;spacingLeft=4;spacingRight=4;overflow=hidden;rotatable=0;points=[[0,0.5],[1,0.5]];portConstraint=eastwest;whiteSpace=wrap;html=1;" vertex="1" parent="bKtA1S6GqMZanXuYI8Mx-5">
          <mxGeometry y="60" width="160" height="26" as="geometry" />
        </mxCell>
        <mxCell id="bKtA1S6GqMZanXuYI8Mx-11" style="edgeStyle=orthogonalEdgeStyle;rounded=0;orthogonalLoop=1;jettySize=auto;html=1;entryX=0.5;entryY=1;entryDx=0;entryDy=0;endArrow=none;endFill=0;" edge="1" parent="1" source="bKtA1S6GqMZanXuYI8Mx-9" target="bKtA1S6GqMZanXuYI8Mx-5">
          <mxGeometry relative="1" as="geometry" />
        </mxCell>
        <mxCell id="bKtA1S6GqMZanXuYI8Mx-9" value="" style="triangle;whiteSpace=wrap;html=1;rotation=-90;" vertex="1" parent="1">
          <mxGeometry x="360" y="360" width="40" height="40" as="geometry" />
        </mxCell>
        <mxCell id="bKtA1S6GqMZanXuYI8Mx-16" style="edgeStyle=orthogonalEdgeStyle;rounded=0;orthogonalLoop=1;jettySize=auto;html=1;entryX=0;entryY=0.5;entryDx=0;entryDy=0;endArrow=none;endFill=0;" edge="1" parent="1" source="bKtA1S6GqMZanXuYI8Mx-12" target="bKtA1S6GqMZanXuYI8Mx-9">
          <mxGeometry relative="1" as="geometry">
            <Array as="points">
              <mxPoint x="290" y="430" />
              <mxPoint x="380" y="430" />
            </Array>
          </mxGeometry>
        </mxCell>
        <mxCell id="bKtA1S6GqMZanXuYI8Mx-12" value="&lt;div&gt;SortedLinkedList&lt;/div&gt;" style="swimlane;fontStyle=0;childLayout=stackLayout;horizontal=1;startSize=26;fillColor=none;horizontalStack=0;resizeParent=1;resizeParentMax=0;resizeLast=0;collapsible=1;marginBottom=0;whiteSpace=wrap;html=1;" vertex="1" parent="1">
          <mxGeometry x="220" y="450" width="140" height="52" as="geometry" />
        </mxCell>
        <mxCell id="bKtA1S6GqMZanXuYI8Mx-13" value="+ insert(T): void" style="text;strokeColor=none;fillColor=none;align=left;verticalAlign=top;spacingLeft=4;spacingRight=4;overflow=hidden;rotatable=0;points=[[0,0.5],[1,0.5]];portConstraint=eastwest;whiteSpace=wrap;html=1;" vertex="1" parent="bKtA1S6GqMZanXuYI8Mx-12">
          <mxGeometry y="26" width="140" height="26" as="geometry" />
        </mxCell>
        <mxCell id="bKtA1S6GqMZanXuYI8Mx-20" style="edgeStyle=orthogonalEdgeStyle;rounded=0;orthogonalLoop=1;jettySize=auto;html=1;endArrow=none;endFill=0;" edge="1" parent="1" source="bKtA1S6GqMZanXuYI8Mx-17" target="bKtA1S6GqMZanXuYI8Mx-9">
          <mxGeometry relative="1" as="geometry">
            <Array as="points">
              <mxPoint x="470" y="430" />
              <mxPoint x="380" y="430" />
            </Array>
          </mxGeometry>
        </mxCell>
        <mxCell id="bKtA1S6GqMZanXuYI8Mx-17" value="&lt;div&gt;LinkedList&lt;/div&gt;" style="swimlane;fontStyle=0;childLayout=stackLayout;horizontal=1;startSize=26;fillColor=none;horizontalStack=0;resizeParent=1;resizeParentMax=0;resizeLast=0;collapsible=1;marginBottom=0;whiteSpace=wrap;html=1;" vertex="1" parent="1">
          <mxGeometry x="400" y="450" width="140" height="52" as="geometry" />
        </mxCell>
        <mxCell id="bKtA1S6GqMZanXuYI8Mx-18" value="+ insert(T): void" style="text;strokeColor=none;fillColor=none;align=left;verticalAlign=top;spacingLeft=4;spacingRight=4;overflow=hidden;rotatable=0;points=[[0,0.5],[1,0.5]];portConstraint=eastwest;whiteSpace=wrap;html=1;" vertex="1" parent="bKtA1S6GqMZanXuYI8Mx-17">
          <mxGeometry y="26" width="140" height="26" as="geometry" />
        </mxCell>
      </root>
    </mxGraphModel>
  </diagram>
</mxfile>
